<?xml version="1.0" standalone="no"?>
<!DOCTYPE svg PUBLIC "-//W3C//DTD SVG 20010904//EN"
 "http://www.w3.org/TR/2001/REC-SVG-20010904/DTD/svg10.dtd">
<svg version="1.0" xmlns="http://www.w3.org/2000/svg"
 width="700.000000pt" height="700.000000pt" viewBox="0 0 700.000000 700.000000"
 preserveAspectRatio="xMidYMid meet">
<metadata>
Created by potrace 1.14, written by Peter Selinger 2001-2017
</metadata>
<g transform="translate(0.000000,700.000000) scale(0.100000,-0.100000)"
fill="#000000" stroke="none">
<path d="M1904 6962 c-34 -33 -147 -136 -278 -252 -21 -19 -46 -42 -55 -50 -9
-9 -54 -49 -101 -90 -46 -41 -94 -84 -106 -95 -11 -11 -49 -45 -84 -75 -34
-30 -74 -66 -89 -80 -15 -14 -65 -59 -111 -100 -46 -41 -106 -96 -134 -121
-28 -25 -103 -92 -166 -149 -63 -57 -151 -135 -195 -175 -44 -40 -98 -87 -120
-106 -22 -19 -47 -41 -55 -50 -8 -9 -64 -61 -125 -114 -60 -54 -145 -130 -189
-169 -43 -39 -82 -72 -87 -74 -5 -2 -9 -1128 -9 -2633 l0 -2629 2624 0 2624 0
595 598 c328 328 722 724 876 880 l281 283 0 2620 0 2619 -2528 0 -2528 0 -40
-38z m3343 -4280 c-1 -471 -2 -85 -2 858 0 943 1 1329 2 857 2 -471 2 -1243 0
-1715z m0 -914 c-2 -13 -4 -5 -4 17 -1 22 1 32 4 23 2 -10 2 -28 0 -40z m0
-326 c-1 -53 -3 -7 -3 103 0 110 2 154 3 97 2 -57 2 -147 0 -200z m0 -154 c-2
-13 -4 -5 -4 17 -1 22 1 32 4 23 2 -10 2 -28 0 -40z m0 -326 c-1 -53 -3 -7 -3
103 0 110 2 154 3 97 2 -57 2 -147 0 -200z m0 -154 c-2 -13 -4 -5 -4 17 -1 22
1 32 4 23 2 -10 2 -28 0 -40z m0 -326 c-1 -53 -3 -7 -3 103 0 110 2 154 3 97
2 -57 2 -147 0 -200z m0 -144 c-3 -8 -6 -5 -6 6 -1 11 2 17 5 13 3 -3 4 -12 1
-19z m0 -40 c-3 -8 -6 -5 -6 6 -1 11 2 17 5 13 3 -3 4 -12 1 -19z m0 -110 c-3
-7 -5 -2 -5 12 0 14 2 19 5 13 2 -7 2 -19 0 -25z m0 -40 c-3 -8 -6 -5 -6 6 -1
11 2 17 5 13 3 -3 4 -12 1 -19z m0 -40 c-3 -8 -6 -5 -6 6 -1 11 2 17 5 13 3
-3 4 -12 1 -19z m0 -75 c-3 -10 -5 -5 -5 12 0 17 2 24 5 18 2 -7 2 -21 0 -30z"/>
</g>
</svg>
