<?xml version="1.0" encoding="us-ascii" standalone="no"?><svg xmlns="http://www.w3.org/2000/svg" xmlns:xlink="http://www.w3.org/1999/xlink" contentStyleType="text/css" height="239px" preserveAspectRatio="none" style="width:645px;height:239px;background:#FFFFFF;" version="1.1" viewBox="0 0 645 239" width="645px" zoomAndPan="magnify"><defs/><g><g id="ist"><rect fill="#F1F1F1" height="50" rx="12.5" ry="12.5" style="stroke:#181818;stroke-width:0.5;" width="98" x="7" y="39.5659"/><line style="stroke:#181818;stroke-width:0.5;" x1="7" x2="105" y1="65.8628" y2="65.8628"/><text fill="#000000" font-family="sans-serif" font-size="14" lengthAdjust="spacing" textLength="78" x="17" y="57.561">Ist Zustand</text></g><g id="ziel"><rect fill="#F1F1F1" height="50" rx="12.5" ry="12.5" style="stroke:#181818;stroke-width:0.5;" width="107" x="382" y="59.5659"/><line style="stroke:#181818;stroke-width:0.5;" x1="382" x2="489" y1="85.8628" y2="85.8628"/><text fill="#000000" font-family="sans-serif" font-size="14" lengthAdjust="spacing" textLength="87" x="392" y="77.561">Ziel Zustand</text></g><rect fill="#555555" height="80" style="stroke:none;stroke-width:1.0;" width="8" x="244.5" y="134.5659"/><ellipse cx="56" cy="174.5659" fill="#222222" rx="10" ry="10" style="stroke:#222222;stroke-width:1.0;"/><g id="elem_GMN12"><path d="M389,207.0059 L389,232.1387 L482,232.1387 L482,217.0059 L472,207.0059 L389,207.0059 " fill="#FEFFDD" style="stroke:#181818;stroke-width:0.5;"/><path d="M472,207.0059 L472,217.0059 L482,217.0059 L472,207.0059 " fill="#FEFFDD" style="stroke:#181818;stroke-width:1.0;"/><text fill="#000000" font-family="sans-serif" font-size="13" lengthAdjust="spacing" textLength="72" x="395" y="224.0728">St&#246;rgr&#246;&#223;en</text></g><ellipse cx="628" cy="84.5659" fill="none" rx="11" ry="11" style="stroke:#222222;stroke-width:1.0;"/><ellipse cx="628" cy="84.5659" fill="#222222" rx="6" ry="6" style="stroke:#222222;stroke-width:1.0;"/><!--link *start* to stoer--><g id="link_*start*_stoer"><path d="M66.45,174.5659 C101.43,174.5659 216.71,174.5659 238.23,174.5659 " fill="none" id="*start*-to-stoer" style="stroke:#181818;stroke-width:1.0;"/><polygon fill="#181818" points="244.23,174.5659,235.23,170.5659,239.23,174.5659,235.23,178.5659,244.23,174.5659" style="stroke:#181818;stroke-width:1.0;"/><text fill="#000000" font-family="sans-serif" font-size="13" lengthAdjust="spacing" textLength="61" x="136" y="170.6328">Ursachen</text></g><!--link ist to ziel--><g id="link_ist_ziel"><path d="M105.49,45.7459 C115.13,42.7659 125.28,40.1459 135,38.5659 C230.2,23.1159 258.66,14.3059 352,38.5659 C368.19,42.7759 379.4208,47.856 393.2808,56.146 " fill="none" id="ist-to-ziel" style="stroke:#181818;stroke-width:1.0;"/><polygon fill="#181818" points="398.43,59.2259,392.7594,51.1733,394.139,56.6594,388.6529,58.0389,398.43,59.2259" style="stroke:#181818;stroke-width:1.0;"/><text fill="#000000" font-family="sans-serif" font-size="13" lengthAdjust="spacing" textLength="39" x="229" y="19.6328">Weg 1</text></g><!--link ist to ziel--><g id="link_ist_ziel"><path d="M105.19,67.1259 C176.15,70.8859 302.2684,77.5687 375.7484,81.4587 " fill="none" id="ist-to-ziel-1" style="stroke:#181818;stroke-width:1.0;"/><polygon fill="#181818" points="381.74,81.7759,372.964,77.3057,376.747,81.5116,372.5411,85.2945,381.74,81.7759" style="stroke:#181818;stroke-width:1.0;"/><text fill="#000000" font-family="sans-serif" font-size="13" lengthAdjust="spacing" textLength="39" x="229" y="70.6328">Weg 2</text></g><!--link ist to stoer--><g id="link_ist_stoer"><path d="M100.7,89.8059 C150.8,118.7259 222.9043,160.3651 239.2143,169.7851 " fill="none" id="ist-to-stoer" style="stroke:#181818;stroke-width:1.0;"/><polygon fill="#181818" points="244.41,172.7859,238.617,164.8209,240.0803,170.2852,234.6159,171.7485,244.41,172.7859" style="stroke:#181818;stroke-width:1.0;"/><text fill="#000000" font-family="sans-serif" font-size="13" lengthAdjust="spacing" textLength="39" x="147" y="106.6328">Weg 3</text></g><!--link stoer to ziel--><g id="link_stoer_ziel"><path d="M252.99,172.1259 C260.94,166.6259 281.06,153.0259 299,143.5659 C325.56,129.5759 350.6001,118.35 375.9901,107.79 " fill="none" id="stoer-to-ziel" style="stroke:#181818;stroke-width:1.0;"/><polygon fill="#181818" points="381.53,105.4859,371.684,105.2488,376.9134,107.406,374.7562,112.6354,381.53,105.4859" style="stroke:#181818;stroke-width:1.0;"/><text fill="#000000" font-family="sans-serif" font-size="13" lengthAdjust="spacing" textLength="51" x="300" y="114.6328">Weg 3 a</text></g><!--link stoer to ziel--><g id="link_stoer_ziel"><path d="M252.89,175.2059 C266.26,177.5659 316.3,184.7859 352,168.5659 C379.73,155.9759 399.5588,134.4074 414.2688,114.5474 " fill="none" id="stoer-to-ziel-1" style="stroke:#181818;stroke-width:1.0;"/><polygon fill="#181818" points="417.84,109.7259,409.2689,114.5773,414.864,113.7438,415.6975,119.3389,417.84,109.7259" style="stroke:#181818;stroke-width:1.0;"/><text fill="#000000" font-family="sans-serif" font-size="13" lengthAdjust="spacing" textLength="51" x="300" y="164.6328">Weg 3 b</text></g><!--link stoer to GMN12--><g id="link_stoer_GMN12"><path d="M252.97,176.5959 C260.86,181.0959 280.88,192.0059 299,197.5659 C328.16,206.5259 362.04,212.0259 388.62,215.2859 " fill="none" id="stoer-GMN12" style="stroke:#181818;stroke-width:1.0;stroke-dasharray:7.0,7.0;"/></g><!--link ziel to *end*--><g id="link_ziel_*end*"><path d="M489.31,84.5659 C533.58,84.5659 587.21,84.5659 610.79,84.5659 " fill="none" id="ziel-to-*end*" style="stroke:#181818;stroke-width:1.0;"/><polygon fill="#181818" points="616.79,84.5659,607.79,80.5659,611.79,84.5659,607.79,88.5659,616.79,84.5659" style="stroke:#181818;stroke-width:1.0;"/><text fill="#000000" font-family="sans-serif" font-size="13" lengthAdjust="spacing" textLength="66" x="520" y="80.6328">Wirkungen</text></g><!--SRC=[TP0nZi9034LxdyAYGLg9OfSEeVHRezLA88eXSP9HY8qyXeBBS0ika8ljJ48GeANqUvu_jgSc1pJ1dPX9YuLNoiqBmvvAIq9zLTi3XsbeF1-SkXPROSbhbPPGwKGQ222OCyB9Tp1S7sF1nGHTG1ziL6jF-oTtZc2KA-kkMcbtxIx4lGqcfBXSbg9DbW5iFhOucsKtli0V3IwlAKuM_-XDoelYbohy_0z-tU6OaUWSXkgbUOxkdTW1iCIXXnD9ESG1ujCIG5nWwWFeNwUOj4DCyTeSkIB-0m00]--></g></svg>