<?xml version="1.0" encoding="UTF-8" standalone="no"?>
<!-- Created with Inkscape (http://www.inkscape.org/) -->

<svg
   width="180mm"
   height="180mm"
   viewBox="0 0 180 180"
   version="1.1"
   id="svg1"
   inkscape:version="1.3.2 (091e20e, 2023-11-25, custom)"
   sodipodi:docname="Logo-rot-kreuz-würfel-Euro.svg"
   inkscape:export-filename="Logo-rot-kreuz-würfel-euro-680x680.png"
   inkscape:export-xdpi="95.955559"
   inkscape:export-ydpi="95.955559"
   xmlns:inkscape="http://www.inkscape.org/namespaces/inkscape"
   xmlns:sodipodi="http://sodipodi.sourceforge.net/DTD/sodipodi-0.dtd"
   xmlns:xlink="http://www.w3.org/1999/xlink"
   xmlns="http://www.w3.org/2000/svg"
   xmlns:svg="http://www.w3.org/2000/svg">
  <sodipodi:namedview
     id="namedview1"
     pagecolor="#ffffff"
     bordercolor="#000000"
     borderopacity="0.25"
     inkscape:showpageshadow="2"
     inkscape:pageopacity="0.0"
     inkscape:pagecheckerboard="0"
     inkscape:deskcolor="#d1d1d1"
     inkscape:document-units="mm"
     showgrid="true"
     inkscape:zoom="2.4196801"
     inkscape:cx="272.96997"
     inkscape:cy="395.9201"
     inkscape:window-width="2558"
     inkscape:window-height="1360"
     inkscape:window-x="1273"
     inkscape:window-y="0"
     inkscape:window-maximized="0"
     inkscape:current-layer="layer2">
    <inkscape:grid
       id="grid1"
       units="mm"
       originx="0"
       originy="0"
       spacingx="1"
       spacingy="1"
       empcolor="#0099e5"
       empopacity="0.30196078"
       color="#0099e5"
       opacity="0.14901961"
       empspacing="5"
       dotted="false"
       gridanglex="30"
       gridanglez="30"
       visible="true" />
  </sodipodi:namedview>
  <defs
     id="defs1">
    <clipPath
       id="p.0">
      <path
         d="M 0,0 H 778 V 449 H 0 Z"
         clip-rule="nonzero"
         id="path1" />
    </clipPath>
    <symbol
       viewBox="0 0 24 24"
       id="ic_euro_symbol_24px">
      <title
         id="title1">ic_euro_symbol_24px_inkscape_duplicate</title>
      <path
         d="M 15,18.5 A 6.48,6.48 0 0 1 9.24,15 H 15 V 13 H 8.58 C 8.53,12.67 8.5,12.34 8.5,12 8.5,11.66 8.53,11.33 8.58,11 H 15 V 9 H 9.24 A 6.49,6.49 0 0 1 15,5.5 c 1.61,0 3.09,0.59 4.23,1.57 L 21,5.3 A 8.955,8.955 0 0 0 15,3 C 11.08,3 7.76,5.51 6.52,9 H 3 v 2 h 3.06 a 8.262,8.262 0 0 0 0,2 H 3 v 2 h 3.52 c 1.24,3.49 4.56,6 8.48,6 2.31,0 4.41,-0.87 6,-2.3 L 19.22,16.93 C 18.09,17.91 16.62,18.5 15,18.5 Z"
         id="path55" />
    </symbol>
  </defs>
  <g
     inkscape:label="Layer 1"
     inkscape:groupmode="layer"
     id="layer1">
    <rect
       style="fill:#ffffff;stroke-width:0.264583"
       id="rect2"
       width="134.79381"
       height="10.000015"
       x="0"
       y="169.99998"
       ry="0" />
    <rect
       style="fill:#000000;stroke-width:0.264583"
       id="rect3"
       width="134.79381"
       height="135"
       x="0"
       y="45" />
    <path
       style="fill:#ffffff;stroke-width:0.584463"
       d="M 0,425.19685 V 170.37097 H 254.53365 509.06729 V 425.19685 680.02273 H 254.53365 0 Z"
       id="path3"
       transform="scale(0.26458333)" />
    <path
       style="fill:#d82a34;fill-opacity:1;stroke-width:0.584463"
       d="M 0,340.15747 H 170.07874 V 170.07874 l 84.45491,0.29223 85.62382,-0.29223 v 170.07873 l 168.90982,1e-5 v 170.07875 l -168.90982,-2e-5 V 680.31495 H 170.07874 V 510.23621 L 0,509.18419 Z"
       id="path4"
       transform="scale(0.26458333)"
       sodipodi:nodetypes="cccccccccccccc" />
    <path
       style="fill:#8fadd1;fill-opacity:1;stroke-width:0.264583"
       d="M 0,44.999999 50.103092,0 H 179.99999 L 135,44.999999 Z"
       id="path5" />
    <path
       style="fill:#1e4586;fill-opacity:1;stroke-width:0.264583"
       d="M 135,179.99999 180,134.71477 179.99999,0 135,44.999999 Z"
       id="path6" />
  </g>
  <g
     inkscape:groupmode="layer"
     id="layer2"
     inkscape:label="Layer 2">
    <use
       xlink:href="#ic_euro_symbol_24px"
       width="24"
       height="24"
       style="fill:#ffffff;stroke:none"
       id="use1"
       transform="matrix(4.5852235,0,0,4.5852235,1.9402134,57.562538)" />
  </g>
</svg>
