<?xml version="1.0" standalone="no"?>
<!DOCTYPE svg PUBLIC "-//W3C//DTD SVG 20010904//EN"
 "http://www.w3.org/TR/2001/REC-SVG-20010904/DTD/svg10.dtd">
<svg version="1.0" xmlns="http://www.w3.org/2000/svg"
 width="700.000000pt" height="700.000000pt" viewBox="0 0 700.000000 700.000000"
 preserveAspectRatio="xMidYMid meet">
<metadata>
Created by potrace 1.14, written by Peter Selinger 2001-2017
</metadata>
<g transform="translate(0.000000,700.000000) scale(0.100000,-0.100000)"
fill="#000000" stroke="none">
<path d="M884 6118 l-881 -883 2 -2600 c2 -1430 3 -2608 4 -2617 1 -17 133
-18 2616 -18 l2614 0 743 746 c409 410 805 807 880 882 l138 137 0 2618 0
2617 -2618 0 -2617 0 -881 -882z m5406 168 c0 -2 -8 -10 -17 -17 -16 -13 -17
-12 -4 4 13 16 21 21 21 13z m-160 -159 c0 -2 -10 -12 -22 -23 l-23 -19 19 23
c18 21 26 27 26 19z m-60 -60 c0 -2 -12 -14 -27 -28 l-28 -24 24 28 c23 25 31
32 31 24z m-60 -61 c0 -2 -8 -10 -17 -17 -16 -13 -17 -12 -4 4 13 16 21 21 21
13z m-40 -39 c0 -2 -10 -12 -22 -23 l-23 -19 19 23 c18 21 26 27 26 19z m-80
-80 c0 -2 -10 -12 -22 -23 l-23 -19 19 23 c18 21 26 27 26 19z m-174 -179
c-56 -57 -103 -102 -105 -100 -6 3 191 202 199 202 4 0 -39 -46 -94 -102z
m-117 -113 c-49 -53 -363 -365 -367 -365 -4 0 76 83 178 185 102 102 187 185
189 185 2 0 2 -2 0 -5z"/>
</g>
</svg>
